<?xml version="1.0" encoding="utf-8"?><!-- Uploaded to: SVG Repo, www.svgrepo.com, Generator: SVG Repo Mixer Tools -->
<svg fill="#000000" width="800px" height="800px" viewBox="0 0 24 24" id="edit-user-3" data-name="Flat Color" xmlns="http://www.w3.org/2000/svg" class="icon flat-color"><path id="secondary" d="M20.31,12.29l1.4,1.4a1,1,0,0,1,0,1.4L15.1,21.71a1.05,1.05,0,0,1-.71.29H13a1,1,0,0,1-1-1V19.61a1.05,1.05,0,0,1,.29-.71l6.62-6.61A1,1,0,0,1,20.31,12.29Z" style="fill: rgb(44, 169, 188);"></path><path id="primary" d="M11,19.61a2,2,0,0,1,.59-1.41L17,12.81a5.94,5.94,0,0,0-1.65-.66,6,6,0,1,0-8.64,0A6,6,0,0,0,2,18v1a1,1,0,0,0,.29.71C2.53,19.94,4.77,22,11,22Z" style="fill: rgb(0, 0, 0);"></path></svg>