<?xml version="1.0" encoding="utf-8"?><!-- Uploaded to: SVG Repo, www.svgrepo.com, Generator: SVG Repo Mixer Tools -->
<svg fill="#000000" width="800px" height="800px" viewBox="0 0 24 24" id="home-3" data-name="Flat Color" xmlns="http://www.w3.org/2000/svg" class="icon flat-color"><path id="primary" d="M21.41,8l-3.7-3.71A1,1,0,0,0,17,4H7a1,1,0,0,0-.92.62,1,1,0,0,0,.21,1.09L10,9.41V19a1,1,0,0,0,1,1H21a1,1,0,0,0,1-1V9.41A2,2,0,0,0,21.41,8Z" style="fill: rgb(0, 0, 0);"></path><path id="secondary" d="M11.71,8.29l-4-4a1,1,0,0,0-1.42,0L2.59,8A2,2,0,0,0,2,9.41V19a1,1,0,0,0,1,1h8a1,1,0,0,0,1-1V9A1,1,0,0,0,11.71,8.29Z" style="fill: rgb(44, 169, 188);"></path></svg>